<?xml version="1.0" encoding="utf-8"?>
<!-- Generator: Adobe Illustrator 23.0.1, SVG Export Plug-In . SVG Version: 6.00 Build 0)  -->
<svg version="1.1" xmlns="http://www.w3.org/2000/svg" xmlns:xlink="http://www.w3.org/1999/xlink" x="0px" y="0px"
	 viewBox="0 0 512 512" enable-background="new 0 0 512 512" xml:space="preserve">
<g id="Layer_3" display="none">
	
		<rect y="0" display="inline" fill="#242222" stroke="#FFFFFF" stroke-width="0.75" stroke-miterlimit="10" width="512" height="512"/>
</g>
<g id="Layer_1" display="none">
	<g display="inline">
		<path d="M496.53,80.53c0,117.33,0,234.67,0,352c-0.25,0.75-0.51,1.5-0.73,2.27c-2.9,10.14-11.5,16.76-22.1,16.76
			c-56.53,0.03-113.05,0.02-169.58,0.02c-46.31,0-92.61,0.02-138.92,0.02c-42.04,0-84.08-0.01-126.12-0.04
			c-6.79,0-12.37-2.74-16.96-7.69c-3-3.24-4.38-7.24-5.6-11.34c0-117.33,0-234.67,0-352c5.66-15.22,11.2-19.04,27.6-19.04
			c74.4-0.01,148.79-0.02,223.19-0.03c41.6,0,83.2-0.01,124.79,0c27.11,0,54.22,0.04,81.33,0.02c5.75,0,10.8,1.77,15.21,5.45
			C492.95,70.52,495.13,75.29,496.53,80.53z M256.5,76.57c-20.44,0-40.88,0-61.32,0c-51.37,0-102.74,0-154.1,0
			c-7.06,0-9.54,2.53-9.54,9.68c0,21.33,0,42.66,0,63.99c0,92.34,0,184.68,0,277.02c0,6.55,2.65,9.22,9.19,9.22
			c19.73,0.02,39.46,0.04,59.19,0.04c60.43-0.01,120.87-0.03,181.3-0.03c63.63-0.01,127.27,0,190.9,0c6.86,0,9.41-2.59,9.41-9.55
			c0-56.26,0-112.52,0-168.77c0-57.5,0-115,0-172.51c0-6.38-2.7-9.08-9.07-9.09c-6.93-0.01-13.86,0-20.8,0
			C386.61,76.58,321.56,76.58,256.5,76.57z"/>
		<path fill="#FFFFFF" d="M16.53,432.53c1.22,4.1,2.6,8.1,5.6,11.34c4.59,4.95,10.17,7.68,16.96,7.69
			c42.04,0.03,84.08,0.04,126.12,0.04c46.31,0,92.61-0.01,138.92-0.02c56.53,0,113.05,0.01,169.58-0.02
			c10.6-0.01,19.2-6.62,22.1-16.76c0.22-0.76,0.49-1.51,0.73-2.27c0,20.71-0.02,41.42,0.04,62.13c0.01,1.59-0.32,1.91-1.91,1.91
			c-158.76-0.05-317.51-0.05-476.27,0c-1.59,0-1.92-0.32-1.91-1.91C16.56,473.96,16.53,453.24,16.53,432.53z"/>
		<path fill="#FFFFFF" d="M496.53,80.53c-1.4-5.24-3.58-10.01-7.87-13.59c-4.42-3.69-9.46-5.46-15.21-5.45
			c-27.11,0.02-54.22-0.02-81.33-0.02c-41.6-0.01-83.2,0-124.79,0c-74.4,0.01-148.79,0.02-223.19,0.03
			c-16.41,0-21.95,3.82-27.6,19.04c0-20.71,0.02-41.42-0.04-62.13c-0.01-1.59,0.32-1.91,1.91-1.91c158.76,0.05,317.51,0.05,476.27,0
			c1.59,0,1.92,0.32,1.91,1.91C496.51,39.11,496.53,59.82,496.53,80.53z"/>
		<path fill="#FFFFFF" d="M256.5,76.57c65.05,0,130.11,0,195.16,0c6.93,0,13.86-0.01,20.8,0c6.37,0.01,9.07,2.71,9.07,9.09
			c0,57.5,0,115,0,172.51c0,56.26,0,112.52,0,168.77c0,6.96-2.55,9.55-9.41,9.55c-63.63,0-127.27,0-190.9,0
			c-60.43,0.01-120.87,0.03-181.3,0.03c-19.73,0-39.46-0.02-59.19-0.04c-6.54-0.01-9.19-2.68-9.19-9.22c0-92.34,0-184.68,0-277.02
			c0-21.33,0-42.66,0-63.99c0-7.15,2.49-9.68,9.54-9.68c51.37,0,102.74,0,154.1,0C215.62,76.57,236.06,76.57,256.5,76.57z
			 M143.9,226.6c0-0.01,0-0.02,0-0.02c19.9,0,39.8,0.04,59.7-0.02c12.03-0.03,21.39-8.24,22.77-20.03c0.33-2.79,0.09-5.68-0.1-8.51
			c-3.21-47.57-46.75-82.66-93.91-75.71c-40,5.9-69.48,39.07-70.86,79.73c-0.49,14.43,9.29,24.54,23.76,24.55
			C104.81,226.61,124.35,226.6,143.9,226.6z M346.55,290.76c0.01,0,0.02,0,0.03,0c0,15.9,0.01,31.8-0.01,47.7
			c-0.01,3.1,1.09,5.56,3.83,7.11c5.3,2.99,11.14-0.89,11.14-7.48c0.04-31.54,0.05-63.07,0-94.61c0-2.04,0.42-3.04,2.56-3.79
			c13.56-4.76,21.75-18.41,19.66-32.34c-2.22-14.76-14.46-25.61-29.12-25.84c-14.82-0.23-27.54,10.17-30.16,24.64
			c-2.62,14.49,5.55,28.59,19.63,33.59c1.95,0.69,2.51,1.58,2.5,3.58C346.51,259.14,346.55,274.95,346.55,290.76z M271.49,320.71
			c0,5.95,0.01,11.91-0.01,17.86c-0.01,2.9,1.14,5.19,3.56,6.76c2.44,1.58,5.02,1.67,7.58,0.24c2.65-1.48,3.89-3.78,3.89-6.8
			c0-11.73,0.06-23.46-0.05-35.19c-0.02-2.24,0.68-3.14,2.8-3.9c14.93-5.37,22.93-21.17,18.61-36.42
			c-4.24-14.94-19.29-24.17-34.55-21.19c-13.22,2.59-23.18,13.69-24.2,26.99c-1.05,13.64,6.85,26.07,19.71,30.61
			c2.23,0.79,2.74,1.83,2.7,3.97C271.41,309.33,271.49,315.02,271.49,320.71z M421.47,328.03c0.01,0,0.02,0,0.03,0
			c0,1.6,0,3.2,0,4.8c0,1.69-0.03,3.37-0.02,5.06c0.02,5.02,3.08,8.6,7.44,8.68c4.5,0.09,7.66-3.47,7.67-8.67
			c0.01-5.86,0-11.72,0-17.58c0-4.43,0-4.43,4.12-6.17c13.91-5.9,21.3-21.03,17.33-35.51c-3.9-14.26-18.18-23.91-32.43-21.91
			c-15.74,2.2-26.81,14.83-26.58,30.32c0.18,12.46,7.93,23.24,20.12,27.72c1.83,0.67,2.46,1.52,2.38,3.41
			C421.36,321.45,421.47,324.74,421.47,328.03z M421.46,181.31c0,9.68,0,19.37,0,29.05c0,7.82-0.06,15.64,0.03,23.45
			c0.05,4.39,3.42,7.75,7.52,7.76c4.18,0.01,7.37-3.23,7.55-7.7c0.05-1.33,0-2.66,0-4c0-24.96,0.01-49.93,0.01-74.89
			c0-8.53,0.07-17.06-0.03-25.58c-0.06-5.16-4.18-8.63-8.94-7.74c-3.76,0.7-6.13,3.91-6.13,8.49
			C421.45,147.2,421.46,164.25,421.46,181.31z M136.63,316.54c0-0.02,0-0.03,0-0.05c-14.48,0-28.95,0-43.43,0
			c-3.2,0-6.4-0.05-9.59,0.09c-3.24,0.14-5.84,2.25-6.75,5.17c-0.95,3.06,0.01,6.54,2.8,8.22c1.58,0.95,3.63,1.54,5.47,1.56
			c12.88,0.13,25.76,0.07,38.63,0.07c21.49,0,42.99,0.05,64.48-0.08c1.9-0.01,4.03-0.81,5.62-1.88c2.54-1.71,3.25-5.23,2.2-8.17
			c-1.1-3.07-3.73-4.91-7.48-4.91C171.27,316.52,153.95,316.54,136.63,316.54z M286.52,173.87c0-14.66-0.02-29.33,0.02-43.99
			c0.01-2.53-0.56-4.78-2.54-6.46c-2.38-2.02-5.1-2.52-7.96-1.23c-3.17,1.43-4.55,4.05-4.55,7.48c0.01,22.75,0.01,45.5,0.02,68.25
			c0,7.02-0.09,14.04,0.04,21.06c0.08,4.46,3.5,7.7,7.65,7.6c4.05-0.09,7.13-3.32,7.31-7.67c0.04-0.89,0.02-1.78,0.02-2.67
			C286.52,202.13,286.52,188,286.52,173.87z M129.08,301.49c14.75,0,29.5,0.01,44.25-0.01c4.86-0.01,8.11-2.93,8.17-7.23
			c0.06-4.57-3.29-7.78-8.27-7.78c-29.41-0.02-58.82-0.02-88.23,0.02c-1.38,0-2.87,0.24-4.13,0.78c-3.23,1.41-4.9,4.99-4.16,8.39
			c0.77,3.53,3.62,5.79,7.59,5.8C99.23,301.51,114.15,301.49,129.08,301.49z M114.07,271.53c0-0.01,0-0.01,0-0.02
			c9.68,0,19.36,0.01,29.05-0.01c1.05,0,2.16-0.03,3.15-0.33c3.58-1.08,5.75-4.62,5.19-8.28c-0.57-3.77-3.73-6.35-8.01-6.36
			c-19.63-0.02-39.26-0.02-58.89,0.02c-4.76,0.01-7.97,3.08-7.99,7.44c-0.02,4.42,3.32,7.53,8.18,7.54
			C94.52,271.55,104.29,271.53,114.07,271.53z M188.8,271.53c0-0.01,0-0.02,0-0.02c4.89,0,9.77,0.03,14.66-0.01
			c4.73-0.03,8.06-3.09,8.12-7.37c0.06-4.28-3.45-7.6-8.19-7.61c-9.59-0.03-19.19-0.02-28.78,0.03c-4.69,0.02-8.07,3.17-8.12,7.4
			c-0.05,4.37,3.36,7.55,8.19,7.58C179.38,271.55,184.09,271.53,188.8,271.53z M346.58,143.92c-0.01,0-0.02,0-0.03,0
			c0,4.88-0.03,9.77,0.01,14.65c0.04,4.69,3.15,7.95,7.49,7.94c4.34-0.01,7.49-3.25,7.51-7.95c0.05-9.68,0.04-19.36-0.02-29.03
			c-0.03-4.7-3.18-7.95-7.51-7.95c-4.41,0-7.4,3.16-7.44,7.96C346.55,134.33,346.58,139.12,346.58,143.92z M76.5,391.63
			c0.01,0,0.03,0,0.04,0c0-2.66,0.13-5.33-0.03-7.97c-0.25-4.11-3.52-7.12-7.51-7.12c-3.88,0-7.23,2.88-7.4,6.92
			c-0.23,5.4-0.27,10.82-0.01,16.21c0.2,4.12,3.68,6.92,7.76,6.82c3.9-0.09,6.92-3.04,7.13-7.15
			C76.61,396.77,76.5,394.2,76.5,391.63z M436.5,391.69c0.02,0,0.03,0,0.05,0c0,2.39-0.06,4.79,0.01,7.18
			c0.15,4.57,3.23,7.65,7.49,7.61c4.23-0.04,7.42-3.2,7.51-7.68c0.1-4.87,0.09-9.75-0.03-14.62c-0.11-4.51-3.36-7.69-7.54-7.65
			c-4.2,0.05-7.35,3.25-7.48,7.72C436.44,386.73,436.5,389.21,436.5,391.69z M114.06,391.76c0.01,0,0.02,0,0.03,0
			c0-2.57,0.08-5.14-0.02-7.71c-0.16-4.41-3.46-7.6-7.67-7.52c-4.09,0.07-7.26,3.25-7.32,7.55c-0.07,4.96-0.05,9.93,0.03,14.89
			c0.07,4.4,3.11,7.45,7.31,7.51c4.23,0.06,7.48-3.12,7.63-7.54C114.12,396.55,114.06,394.15,114.06,391.76z M189.02,391.28
			c-0.01,0-0.02,0-0.03,0c0-2.39,0.06-4.79-0.01-7.18c-0.14-4.37-3.21-7.49-7.33-7.55c-4.24-0.06-7.53,3.09-7.63,7.54
			c-0.12,4.96-0.14,9.92-0.02,14.88c0.11,4.42,3.46,7.59,7.66,7.53c4.13-0.06,7.19-3.14,7.35-7.53
			C189.1,396.42,189.02,393.84,189.02,391.28z M211.59,391.54c0,0-0.01,0-0.01,0c0,2.66-0.12,5.32,0.03,7.97
			c0.22,3.99,3.36,6.89,7.33,6.97c3.92,0.09,7.35-2.75,7.52-6.74c0.24-5.4,0.25-10.81,0.06-16.21c-0.14-4.03-3.64-7.03-7.63-7.01
			c-4,0.02-7.12,3.1-7.29,7.3C211.5,386.4,211.59,388.97,211.59,391.54z M413.97,391.65c0.01,0,0.02,0,0.03,0
			c0-2.66,0.09-5.32-0.02-7.98c-0.17-3.97-3.32-7.02-7.18-7.14c-4-0.12-7.57,2.83-7.72,6.87c-0.21,5.4-0.19,10.82,0.02,16.22
			c0.15,4.06,3.67,6.98,7.71,6.86c3.97-0.11,7-3.07,7.16-7.12C414.05,396.79,413.97,394.22,413.97,391.65z M151.53,391.5
			c-0.01,0-0.02,0-0.02,0c0-2.48,0.06-4.96-0.01-7.44c-0.13-4.34-3.26-7.51-7.35-7.52c-4.25-0.01-7.54,3.18-7.6,7.56
			c-0.08,4.96-0.07,9.92,0.02,14.88c0.08,4.35,3.24,7.49,7.34,7.5c4.28,0.01,7.49-3.13,7.61-7.55
			C151.59,396.47,151.53,393.99,151.53,391.5z M301.51,391.46c-0.01,0-0.02,0-0.03,0c0-2.48,0.06-4.96-0.01-7.44
			c-0.13-4.35-3.28-7.51-7.37-7.49c-4.11,0.01-7.48,3.13-7.59,7.35c-0.13,5.14-0.12,10.28,0.03,15.42c0.12,4.14,3.41,7.2,7.39,7.2
			c4.19,0,7.38-3.03,7.56-7.32C301.6,396.61,301.51,394.03,301.51,391.46z M324.07,391.45c-0.01,0-0.02,0-0.03,0
			c0,2.48-0.06,4.96,0.01,7.44c0.13,4.41,3.14,7.51,7.26,7.62c4.21,0.1,7.62-3.03,7.74-7.44c0.14-5.05,0.13-10.1-0.03-15.15
			c-0.13-4.31-3.42-7.38-7.53-7.37c-4.12,0.01-7.26,3.12-7.42,7.46C323.99,386.49,324.07,388.97,324.07,391.45z M249.03,391.66
			c0.01,0,0.02,0,0.03,0c0,2.57-0.09,5.14,0.02,7.71c0.18,4.12,3.39,7.12,7.46,7.12c4.07-0.01,7.32-3,7.43-7.14
			c0.14-5.14,0.14-10.28,0.04-15.42c-0.08-4.25-3.39-7.41-7.49-7.4c-4.11,0.01-7.33,3.16-7.47,7.42
			C248.96,386.51,249.03,389.09,249.03,391.66z M376.52,391.66c0.01,0,0.02,0,0.02,0c0-2.57,0.08-5.14-0.02-7.71
			c-0.15-4.25-3.35-7.35-7.5-7.4c-4.11-0.04-7.35,3.09-7.44,7.4c-0.1,5.05-0.12,10.1-0.02,15.15c0.08,4.28,3.31,7.36,7.49,7.4
			c4.1,0.04,7.31-3.1,7.46-7.4C376.59,396.62,376.52,394.14,376.52,391.66z"/>
		<path d="M143.9,226.6c-19.55,0-39.09,0.01-58.64,0c-14.47-0.01-24.25-10.13-23.76-24.55c1.38-40.66,30.86-73.83,70.86-79.73
			c47.16-6.95,90.7,28.13,93.91,75.71c0.19,2.83,0.43,5.71,0.1,8.51c-1.39,11.79-10.74,19.99-22.77,20.03
			c-19.9,0.06-39.8,0.02-59.7,0.02C143.9,226.58,143.9,226.59,143.9,226.6z M179.33,211.56c0-0.01,0-0.01,0-0.02
			c8,0,15.99,0.04,23.99-0.01c5.26-0.03,8.29-3.12,8.19-8.35c-0.05-2.66-0.18-5.34-0.53-7.97c-6.4-48.02-60.46-74.14-101.79-48.89
			c-20.94,12.79-31.62,32.06-32.59,56.6c-0.21,5.22,2.8,8.61,7.66,8.63c16.52,0.08,33.05,0.05,49.57-0.04
			c0.83,0,1.99-0.73,2.44-1.47c3.26-5.29,6.36-10.68,9.55-16.02c4.64-7.78,9.28-15.56,13.98-23.31c2.36-3.88,6.09-5.16,9.75-3.52
			c4.4,1.97,5.74,6.9,3,11.49c-6.1,10.22-12.24,20.42-18.41,30.59c-1.01,1.66-1.17,2.37,1.23,2.33
			C163.33,211.49,171.33,211.56,179.33,211.56z"/>
		<path d="M346.55,290.76c0-15.81-0.04-31.63,0.05-47.44c0.01-2-0.54-2.89-2.5-3.58c-14.08-5-22.25-19.1-19.63-33.59
			c2.62-14.47,15.34-24.87,30.16-24.64c14.66,0.22,26.9,11.08,29.12,25.84c2.1,13.93-6.1,27.58-19.66,32.34
			c-2.14,0.75-2.56,1.76-2.56,3.79c0.05,31.54,0.04,63.07,0,94.61c-0.01,6.59-5.84,10.48-11.14,7.48c-2.74-1.55-3.84-4.01-3.83-7.11
			c0.03-15.9,0.01-31.8,0.01-47.7C346.57,290.76,346.56,290.76,346.55,290.76z M354.04,196.6c-8.28,0.02-14.92,6.63-14.95,14.87
			c-0.03,8.29,6.84,15.18,15.06,15.1c8.12-0.08,14.87-6.93,14.86-15.08C369,203.3,362.25,196.58,354.04,196.6z"/>
		<path d="M271.49,320.71c0-5.69-0.08-11.38,0.04-17.06c0.05-2.13-0.46-3.18-2.7-3.97c-12.87-4.54-20.76-16.97-19.71-30.61
			c1.02-13.3,10.98-24.4,24.2-26.99c15.26-2.98,30.32,6.25,34.55,21.19c4.32,15.24-3.68,31.05-18.61,36.42
			c-2.12,0.76-2.82,1.66-2.8,3.9c0.12,11.73,0.05,23.46,0.05,35.19c0,3.01-1.24,5.32-3.89,6.8c-2.56,1.43-5.14,1.33-7.58-0.24
			c-2.42-1.56-3.57-3.86-3.56-6.76C271.5,332.62,271.49,326.66,271.49,320.71z M293.96,271.37c-0.05-8.17-6.84-14.86-15.03-14.82
			c-8.13,0.04-14.94,6.89-14.9,15c0.04,8.31,6.87,15,15.22,14.91C287.48,286.38,294.01,279.67,293.96,271.37z"/>
		<path d="M421.47,328.03c0-3.29-0.1-6.58,0.04-9.86c0.08-1.89-0.55-2.74-2.38-3.41c-12.19-4.48-19.94-15.26-20.12-27.72
			c-0.22-15.5,10.84-28.12,26.58-30.32c14.25-2,28.53,7.65,32.43,21.91c3.96,14.48-3.42,29.61-17.33,35.51
			c-4.11,1.74-4.11,1.74-4.12,6.17c0,5.86,0.01,11.72,0,17.58c-0.01,5.21-3.17,8.76-7.67,8.67c-4.35-0.08-7.42-3.66-7.44-8.68
			c-0.01-1.69,0.02-3.37,0.02-5.06c0-1.6,0-3.2,0-4.8C421.48,328.03,421.47,328.03,421.47,328.03z M428.94,301.48
			c8.22,0.04,14.99-6.62,15.04-14.8c0.05-8.32-6.73-15.15-15.01-15.13c-8.13,0.02-14.94,6.85-14.96,14.97
			C413.99,294.65,420.78,301.44,428.94,301.48z"/>
		<path d="M421.46,181.31c0-17.06-0.01-34.11,0.01-51.17c0-4.57,2.37-7.79,6.13-8.49c4.75-0.88,8.88,2.59,8.94,7.74
			c0.1,8.53,0.03,17.06,0.03,25.58c0,24.96-0.01,49.93-0.01,74.89c0,1.33,0.05,2.67,0,4c-0.17,4.47-3.37,7.71-7.55,7.7
			c-4.1-0.01-7.47-3.37-7.52-7.76c-0.09-7.82-0.03-15.63-0.03-23.45C421.46,200.67,421.46,190.99,421.46,181.31z"/>
		<path d="M136.63,316.54c17.32,0,34.64-0.02,51.96,0.02c3.74,0.01,6.38,1.85,7.48,4.91c1.05,2.93,0.35,6.45-2.2,8.17
			c-1.59,1.07-3.73,1.87-5.62,1.88c-21.49,0.13-42.99,0.08-64.48,0.08c-12.88,0-25.76,0.06-38.63-0.07
			c-1.84-0.02-3.9-0.61-5.47-1.56c-2.78-1.68-3.74-5.16-2.8-8.22c0.9-2.92,3.51-5.02,6.75-5.17c3.19-0.14,6.39-0.09,9.59-0.09
			c14.48-0.01,28.95,0,43.43,0C136.63,316.51,136.63,316.53,136.63,316.54z"/>
		<path d="M286.52,173.87c0,14.13,0,28.26,0,42.39c0,0.89,0.02,1.78-0.02,2.67c-0.19,4.35-3.27,7.57-7.31,7.67
			c-4.14,0.1-7.57-3.14-7.65-7.6c-0.13-7.02-0.04-14.04-0.04-21.06c0-22.75,0-45.5-0.02-68.25c0-3.44,1.38-6.06,4.55-7.48
			c2.86-1.28,5.58-0.79,7.96,1.23c1.98,1.68,2.55,3.93,2.54,6.46C286.5,144.54,286.52,159.2,286.52,173.87z"/>
		<path d="M129.08,301.49c-14.93,0-29.86,0.02-44.78-0.01c-3.97-0.01-6.81-2.27-7.59-5.8c-0.75-3.4,0.92-6.98,4.16-8.39
			c1.26-0.55,2.74-0.78,4.13-0.78c29.41-0.04,58.82-0.04,88.23-0.02c4.97,0,8.33,3.21,8.27,7.78c-0.05,4.3-3.31,7.22-8.17,7.23
			C158.58,301.5,143.83,301.49,129.08,301.49z"/>
		<path d="M114.07,271.53c-9.77,0-19.54,0.02-29.31-0.01c-4.87-0.01-8.2-3.12-8.18-7.54c0.02-4.36,3.23-7.43,7.99-7.44
			c19.63-0.04,39.26-0.04,58.89-0.02c4.27,0,7.43,2.59,8.01,6.36c0.56,3.66-1.61,7.2-5.19,8.28c-1,0.3-2.1,0.33-3.15,0.33
			c-9.68,0.02-19.36,0.01-29.05,0.01C114.07,271.52,114.07,271.52,114.07,271.53z"/>
		<path d="M188.8,271.53c-4.71,0-9.42,0.02-14.13-0.01c-4.83-0.03-8.24-3.21-8.19-7.58c0.05-4.23,3.43-7.38,8.12-7.4
			c9.59-0.05,19.19-0.05,28.78-0.03c4.74,0.01,8.25,3.33,8.19,7.61c-0.06,4.28-3.4,7.34-8.12,7.37c-4.89,0.03-9.77,0.01-14.66,0.01
			C188.8,271.52,188.8,271.52,188.8,271.53z"/>
		<path d="M346.58,143.92c0-4.79-0.03-9.59,0.01-14.38c0.04-4.8,3.03-7.96,7.44-7.96c4.34,0,7.49,3.25,7.51,7.95
			c0.06,9.68,0.07,19.36,0.02,29.03c-0.02,4.7-3.17,7.94-7.51,7.95c-4.34,0.01-7.45-3.25-7.49-7.94c-0.04-4.88-0.01-9.77-0.01-14.65
			C346.56,143.92,346.57,143.92,346.58,143.92z"/>
		<path d="M76.5,391.63c0,2.57,0.11,5.15-0.02,7.71c-0.21,4.11-3.23,7.05-7.13,7.15c-4.07,0.1-7.56-2.7-7.76-6.82
			c-0.26-5.39-0.22-10.82,0.01-16.21c0.17-4.04,3.52-6.93,7.4-6.92c3.99,0,7.27,3.02,7.51,7.12c0.16,2.65,0.03,5.32,0.03,7.97
			C76.53,391.63,76.51,391.63,76.5,391.63z"/>
		<path d="M436.5,391.69c0-2.48-0.06-4.97,0.01-7.45c0.13-4.47,3.28-7.68,7.48-7.72c4.18-0.05,7.43,3.14,7.54,7.65
			c0.12,4.87,0.13,9.75,0.03,14.62c-0.09,4.49-3.28,7.64-7.51,7.68c-4.26,0.04-7.34-3.04-7.49-7.61c-0.08-2.39-0.01-4.79-0.01-7.18
			C436.54,391.69,436.52,391.69,436.5,391.69z"/>
		<path d="M114.06,391.76c0,2.39,0.07,4.79-0.01,7.18c-0.15,4.42-3.4,7.59-7.63,7.54c-4.2-0.06-7.24-3.1-7.31-7.51
			c-0.08-4.96-0.1-9.93-0.03-14.89c0.06-4.3,3.22-7.48,7.32-7.55c4.21-0.07,7.51,3.11,7.67,7.52c0.09,2.57,0.02,5.14,0.02,7.71
			C114.07,391.76,114.07,391.76,114.06,391.76z"/>
		<path d="M189.02,391.28c0,2.57,0.08,5.14-0.02,7.71c-0.16,4.39-3.22,7.47-7.35,7.53c-4.2,0.06-7.55-3.11-7.66-7.53
			c-0.12-4.96-0.1-9.92,0.02-14.88c0.11-4.46,3.4-7.6,7.63-7.54c4.12,0.06,7.19,3.18,7.33,7.55c0.08,2.39,0.01,4.78,0.01,7.18
			C189.01,391.28,189.01,391.28,189.02,391.28z"/>
		<path d="M211.59,391.54c0-2.57-0.08-5.14,0.02-7.71c0.16-4.2,3.29-7.27,7.29-7.3c3.99-0.02,7.49,2.98,7.63,7.01
			c0.19,5.4,0.18,10.82-0.06,16.21c-0.18,3.98-3.61,6.82-7.52,6.74c-3.97-0.09-7.11-2.98-7.33-6.97c-0.15-2.65-0.03-5.32-0.03-7.97
			C211.58,391.54,211.58,391.54,211.59,391.54z"/>
		<path d="M413.97,391.65c0,2.57,0.08,5.14-0.02,7.71c-0.16,4.05-3.19,7.01-7.16,7.12c-4.04,0.12-7.55-2.81-7.71-6.86
			c-0.21-5.4-0.23-10.82-0.02-16.22c0.16-4.04,3.72-7,7.72-6.87c3.87,0.12,7.01,3.17,7.18,7.14c0.12,2.65,0.02,5.32,0.02,7.98
			C413.99,391.65,413.98,391.65,413.97,391.65z"/>
		<path d="M151.53,391.5c0,2.48,0.06,4.96-0.01,7.44c-0.13,4.42-3.33,7.56-7.61,7.55c-4.11-0.01-7.27-3.16-7.34-7.5
			c-0.09-4.96-0.1-9.92-0.02-14.88c0.07-4.38,3.35-7.57,7.6-7.56c4.09,0.01,7.22,3.18,7.35,7.52c0.07,2.48,0.01,4.96,0.01,7.44
			C151.51,391.5,151.52,391.5,151.53,391.5z"/>
		<path d="M301.51,391.46c0,2.57,0.09,5.14-0.02,7.71c-0.18,4.29-3.37,7.32-7.56,7.32c-3.98,0-7.27-3.06-7.39-7.2
			c-0.15-5.14-0.16-10.28-0.03-15.42c0.11-4.21,3.48-7.33,7.59-7.35c4.09-0.01,7.24,3.14,7.37,7.49c0.08,2.48,0.01,4.96,0.01,7.44
			C301.49,391.46,301.5,391.46,301.51,391.46z"/>
		<path d="M324.07,391.45c0-2.48-0.07-4.96,0.02-7.44c0.15-4.34,3.3-7.45,7.42-7.46c4.12-0.01,7.4,3.06,7.53,7.37
			c0.15,5.05,0.17,10.1,0.03,15.15c-0.12,4.41-3.53,7.54-7.74,7.44c-4.12-0.1-7.13-3.21-7.26-7.62c-0.08-2.48-0.01-4.96-0.01-7.44
			C324.05,391.45,324.06,391.45,324.07,391.45z"/>
		<path d="M249.03,391.66c0-2.57-0.07-5.14,0.02-7.71c0.14-4.26,3.37-7.41,7.47-7.42c4.1-0.01,7.41,3.15,7.49,7.4
			c0.1,5.14,0.1,10.28-0.04,15.42c-0.11,4.13-3.36,7.13-7.43,7.14c-4.07,0.01-7.28-2.99-7.46-7.12c-0.11-2.57-0.02-5.14-0.02-7.71
			C249.05,391.66,249.04,391.66,249.03,391.66z"/>
		<path d="M376.52,391.66c0,2.48,0.07,4.96-0.01,7.44c-0.14,4.3-3.36,7.45-7.46,7.4c-4.17-0.04-7.4-3.12-7.49-7.4
			c-0.1-5.05-0.08-10.1,0.02-15.15c0.09-4.32,3.33-7.45,7.44-7.4c4.15,0.04,7.35,3.15,7.5,7.4c0.09,2.57,0.02,5.14,0.02,7.71
			C376.54,391.66,376.53,391.66,376.52,391.66z"/>
		<path fill="#FFFFFF" d="M179.33,211.56c-8,0-15.99-0.07-23.99,0.04c-2.4,0.03-2.23-0.67-1.23-2.33
			c6.17-10.18,12.31-20.37,18.41-30.59c2.74-4.59,1.4-9.52-3-11.49c-3.66-1.64-7.39-0.36-9.75,3.52
			c-4.7,7.74-9.34,15.53-13.98,23.31c-3.18,5.34-6.29,10.73-9.55,16.02c-0.45,0.73-1.61,1.46-2.44,1.47
			c-16.52,0.09-33.05,0.12-49.57,0.04c-4.85-0.02-7.86-3.4-7.66-8.63c0.97-24.54,11.66-43.81,32.59-56.6
			c41.33-25.25,95.39,0.87,101.79,48.89c0.35,2.64,0.48,5.31,0.53,7.97c0.1,5.23-2.92,8.32-8.19,8.35c-8,0.05-15.99,0.01-23.99,0.01
			C179.33,211.54,179.33,211.55,179.33,211.56z"/>
		<path fill="#FFFFFF" d="M354.04,196.6c8.2-0.02,14.95,6.7,14.97,14.89c0.01,8.15-6.74,15-14.86,15.08
			c-8.22,0.08-15.09-6.81-15.06-15.1C339.12,203.23,345.77,196.61,354.04,196.6z"/>
		<path fill="#FFFFFF" d="M293.96,271.37c0.05,8.31-6.48,15.01-14.71,15.09c-8.36,0.08-15.19-6.6-15.22-14.91
			c-0.04-8.11,6.77-14.96,14.9-15C287.13,256.51,293.91,263.2,293.96,271.37z"/>
		<path fill="#FFFFFF" d="M428.94,301.48c-8.16-0.04-14.95-6.84-14.93-14.95c0.02-8.13,6.83-14.95,14.96-14.97
			c8.28-0.02,15.06,6.81,15.01,15.13C443.93,294.86,437.16,301.52,428.94,301.48z"/>
	</g>
</g>
<g id="Layer_2">
	<path fill="#242222" stroke="#FFFFFF" stroke-width="25" stroke-miterlimit="10" d="M452.14,440.5H59.86
		C40.61,440.5,25,424.89,25,405.64V106.36C25,87.11,40.61,71.5,59.86,71.5h392.27c19.25,0,34.86,15.61,34.86,34.86v299.27
		C487,424.89,471.39,440.5,452.14,440.5z"/>
	<g>
		<path fill="#FFFFFF" d="M69,406L69,406c-4.14,0-7.5-3.36-7.5-7.5v-15c0-4.14,3.36-7.5,7.5-7.5h0c4.14,0,7.5,3.36,7.5,7.5v15
			C76.5,402.64,73.14,406,69,406z"/>
		<path fill="#CCCCCC" d="M106.5,402.25L106.5,402.25c-4.14,0-7.5-3.36-7.5-7.5v-7.5c0-4.14,3.36-7.5,7.5-7.5h0
			c4.14,0,7.5,3.36,7.5,7.5v7.5C114,398.89,110.64,402.25,106.5,402.25z"/>
		<path fill="#FFFFFF" d="M144,406L144,406c-4.14,0-7.5-3.36-7.5-7.5v-15c0-4.14,3.36-7.5,7.5-7.5l0,0c4.14,0,7.5,3.36,7.5,7.5v15
			C151.5,402.64,148.14,406,144,406z"/>
		<path fill="#CCCCCC" d="M181.5,402.25L181.5,402.25c-4.14,0-7.5-3.36-7.5-7.5v-7.5c0-4.14,3.36-7.5,7.5-7.5l0,0
			c4.14,0,7.5,3.36,7.5,7.5v7.5C189,398.89,185.64,402.25,181.5,402.25z"/>
		<path fill="#FFFFFF" d="M219,406L219,406c-4.14,0-7.5-3.36-7.5-7.5v-15c0-4.14,3.36-7.5,7.5-7.5l0,0c4.14,0,7.5,3.36,7.5,7.5v15
			C226.5,402.64,223.14,406,219,406z"/>
		<path fill="#CCCCCC" d="M256.5,402.25L256.5,402.25c-4.14,0-7.5-3.36-7.5-7.5v-7.5c0-4.14,3.36-7.5,7.5-7.5l0,0
			c4.14,0,7.5,3.36,7.5,7.5v7.5C264,398.89,260.64,402.25,256.5,402.25z"/>
		<path fill="#FFFFFF" d="M294,406L294,406c-4.14,0-7.5-3.36-7.5-7.5v-15c0-4.14,3.36-7.5,7.5-7.5l0,0c4.14,0,7.5,3.36,7.5,7.5v15
			C301.5,402.64,298.14,406,294,406z"/>
		<path fill="#CCCCCC" d="M331.5,402.25L331.5,402.25c-4.14,0-7.5-3.36-7.5-7.5v-7.5c0-4.14,3.36-7.5,7.5-7.5l0,0
			c4.14,0,7.5,3.36,7.5,7.5v7.5C339,398.89,335.64,402.25,331.5,402.25z"/>
		<path fill="#FFFFFF" d="M369,406L369,406c-4.14,0-7.5-3.36-7.5-7.5v-15c0-4.14,3.36-7.5,7.5-7.5l0,0c4.14,0,7.5,3.36,7.5,7.5v15
			C376.5,402.64,373.14,406,369,406z"/>
		<path fill="#CCCCCC" d="M406.5,402.25L406.5,402.25c-4.14,0-7.5-3.36-7.5-7.5v-7.5c0-4.14,3.36-7.5,7.5-7.5l0,0
			c4.14,0,7.5,3.36,7.5,7.5v7.5C414,398.89,410.64,402.25,406.5,402.25z"/>
		<path fill="#FFFFFF" d="M444,406L444,406c-4.14,0-7.5-3.36-7.5-7.5v-15c0-4.14,3.36-7.5,7.5-7.5l0,0c4.14,0,7.5,3.36,7.5,7.5v15
			C451.5,402.64,448.14,406,444,406z"/>
	</g>
	<g>
		<path fill="#AAAAAA" d="M279,227L279,227c-4.14,0-7.5-3.36-7.5-7.5v-91c0-4.14,3.36-7.5,7.5-7.5l0,0c4.14,0,7.5,3.36,7.5,7.5v91
			C286.5,223.64,283.14,227,279,227z"/>
		<path fill="#AAAAAA" d="M354,166L354,166c-4.14,0-7.5-3.36-7.5-7.5v-30c0-4.14,3.36-7.5,7.5-7.5l0,0c4.14,0,7.5,3.36,7.5,7.5v30
			C361.5,162.64,358.14,166,354,166z"/>
		<path fill="#AAAAAA" d="M429,241L429,241c-4.14,0-7.5-3.36-7.5-7.5v-105c0-4.14,3.36-7.5,7.5-7.5l0,0c4.14,0,7.5,3.36,7.5,7.5v105
			C436.5,237.64,433.14,241,429,241z"/>
		<path fill="#FFFFFF" d="M279,347L279,347c-4.14,0-7.5-3.36-7.5-7.5v-43c0-4.14,3.36-7.5,7.5-7.5l0,0c4.14,0,7.5,3.36,7.5,7.5v43
			C286.5,343.64,283.14,347,279,347z"/>
		<path fill="#FFFFFF" d="M354,347L354,347c-4.14,0-7.5-3.36-7.5-7.5v-103c0-4.14,3.36-7.5,7.5-7.5l0,0c4.14,0,7.5,3.36,7.5,7.5v103
			C361.5,343.64,358.14,347,354,347z"/>
		<path fill="#FFFFFF" d="M429,347L429,347c-4.14,0-7.5-3.36-7.5-7.5v-28c0-4.14,3.36-7.5,7.5-7.5l0,0c4.14,0,7.5,3.36,7.5,7.5v28
			C436.5,343.64,433.14,347,429,347z"/>
		<path fill="#51A84C" stroke="#FFFFFF" stroke-width="16" stroke-miterlimit="10" d="M280,293h-2c-11.32,0-20.5-9.18-20.5-20.5v-2
			c0-11.32,9.18-20.5,20.5-20.5h2c11.32,0,20.5,9.18,20.5,20.5v2C300.5,283.82,291.32,293,280,293z"/>
		<path fill="#E6AA40" stroke="#FFFFFF" stroke-width="16" stroke-miterlimit="10" d="M355,232.5h-2c-11.32,0-20.5-9.18-20.5-20.5
			v-2c0-11.32,9.18-20.5,20.5-20.5h2c11.32,0,20.5,9.18,20.5,20.5v2C375.5,223.32,366.32,232.5,355,232.5z"/>
		<path fill="#C04D4A" stroke="#FFFFFF" stroke-width="16" stroke-miterlimit="10" d="M430,307.5h-2c-11.32,0-20.5-9.18-20.5-20.5
			v-2c0-11.32,9.18-20.5,20.5-20.5h2c11.32,0,20.5,9.18,20.5,20.5v2C450.5,298.32,441.32,307.5,430,307.5z"/>
	</g>
	<g>
		<path fill="#464444" d="M144.5,127.5L144.5,127.5c-41.42,0-75,33.58-75,75v0c0,8.28,6.72,15,15,15h120c8.28,0,15-6.72,15-15v0
			C219.5,161.08,185.92,127.5,144.5,127.5z"/>
		<path fill="#AAAAAA" d="M136.99,219.84L136.99,219.84c-3.5-2.22-4.54-6.85-2.32-10.35l25.83-40.75c2.22-3.5,6.85-4.54,10.35-2.32
			l0,0c3.5,2.22,4.54,6.85,2.32,10.35l-25.83,40.75C145.12,221.02,140.48,222.06,136.99,219.84z"/>
		<path fill="none" stroke="#FFFFFF" stroke-width="15" stroke-miterlimit="10" d="M144.5,127.5L144.5,127.5
			c-41.42,0-75,33.58-75,75v0c0,8.28,6.72,15,15,15h120c8.28,0,15-6.72,15-15v0C219.5,161.08,185.92,127.5,144.5,127.5z"/>
	</g>
	<g display="none">
		<path display="inline" fill="#FFFFFF" d="M192,324L192,324c0,4.14-3.36,7.5-7.5,7.5h-101c-4.14,0-7.5-3.36-7.5-7.5l0,0
			c0-4.14,3.36-7.5,7.5-7.5h101C188.64,316.5,192,319.86,192,324z"/>
		<path display="inline" fill="#FFFFFF" d="M212,294L212,294c0,4.14-3.36,7.5-7.5,7.5h-70c-4.14,0-7.5-3.36-7.5-7.5l0,0
			c0-4.14,3.36-7.5,7.5-7.5h70C208.64,286.5,212,289.86,212,294z"/>
		<path display="inline" fill="#FFFFFF" d="M112,294L112,294c0,4.14-3.36,7.5-7.5,7.5h-21c-4.14,0-7.5-3.36-7.5-7.5l0,0
			c0-4.14,3.36-7.5,7.5-7.5h21C108.64,286.5,112,289.86,112,294z"/>
		<path display="inline" fill="#FFFFFF" d="M212,264L212,264c0,4.14-3.36,7.5-7.5,7.5h-31c-4.14,0-7.5-3.36-7.5-7.5l0,0
			c0-4.14,3.36-7.5,7.5-7.5h31C208.64,256.5,212,259.86,212,264z"/>
		<path display="inline" fill="#FFFFFF" d="M151,264L151,264c0,4.14-3.36,7.5-7.5,7.5h-60c-4.14,0-7.5-3.36-7.5-7.5l0,0
			c0-4.14,3.36-7.5,7.5-7.5h60C147.64,256.5,151,259.86,151,264z"/>
	</g>
	<g>
		<path fill="#FFFFFF" d="M111.36,250.53c-1.9-1.87-4.31-2.81-7.17-2.81H76.6c-2.87,0-5.28,0.95-7.16,2.83
			c-1.88,1.88-2.83,4.29-2.83,7.16v84.59c0,2.88,0.95,5.28,2.83,7.16c1.88,1.88,4.29,2.83,7.16,2.83h27.59
			c2.86,0,5.28-0.95,7.17-2.81c1.91-1.88,2.88-4.29,2.88-7.18V257.7C114.24,254.82,113.27,252.41,111.36,250.53z M99.49,261.46
			v77.08H81.36v-77.08H99.49z"/>
		<path fill="#FFFFFF" d="M166.16,250.52c-1.9-1.87-4.31-2.81-7.17-2.81h-35v97.2c0,4.07,3.31,7.38,7.38,7.38
			c4.07,0,7.38-3.31,7.38-7.38v-31.74h20.24c2.87,0,5.29-0.96,7.19-2.86c1.9-1.9,2.86-4.32,2.86-7.19V257.7
			C169.04,254.86,168.05,252.38,166.16,250.52z M154.29,261.46v37.9h-15.54v-37.9H154.29z"/>
		<path fill="#FFFFFF" d="M214.98,283.63c4.09,0,7.41-3.32,7.41-7.41V257.7c0-2.85-1.01-5.34-2.93-7.19
			c-1.92-1.86-4.34-2.8-7.19-2.8h-25.38c-2.87,0-5.28,0.95-7.16,2.83c-1.88,1.88-2.83,4.29-2.83,7.16v84.59
			c0,2.88,0.95,5.28,2.83,7.16c1.88,1.88,4.29,2.83,7.16,2.83h25.38c2.85,0,5.27-0.94,7.19-2.8c1.92-1.86,2.93-4.34,2.93-7.19v-20.6
			c0-4.08-3.32-7.41-7.41-7.41s-7.41,3.32-7.41,7.41v16.84h-15.92v-77.08h15.92v14.76C207.57,280.31,210.9,283.63,214.98,283.63z"/>
	</g>
</g>
</svg>
